PathFileType	4	(X/Y/Z)	./resultDataOpenSim/trcMotMarkerGrf/sub10/qtm-15-04.trc
DataRate	CameraRate	NumFrames	NumMarkers	Units	OrigDataRate	OrigDataStartFrame	OrigNumFrames
250.000000	250.000000	12	24	m	250.000000	251	501
Frame#	Time	L.Toe.Tip			R.Toe.Tip			L.Ankle.Lat			R.Ankle.Lat			L.Ankle.Med			R.Ankle.Med			L.Heel			R.Heel			L.Knee.Lat			R.Knee.Lat			L.Knee.Med			R.Knee.Med			L.Thigh.Upper			R.Thigh.Upper			L.ASIS			R.ASIS			V.Sacral			L.Acromium			R.Acromium			C7			L.Elbow			R.Elbow			L.Wrist.Lat			R.Wrist.Lat
		X1	Y1	Z1	X2	Y2	Z2	X3	Y3	Z3	X4	Y4	Z4	X5	Y5	Z5	X6	Y6	Z6	X7	Y7	Z7	X8	Y8	Z8	X9	Y9	Z9	X10	Y10	Z10	X11	Y11	Z11	X12	Y12	Z12	X13	Y13	Z13	X14	Y14	Z14	X15	Y15	Z15	X16	Y16	Z16	X17	Y17	Z17	X18	Y18	Z18	X19	Y19	Z19	X20	Y20	Z20	X21	Y21	Z21	X22	Y22	Z22	X23	Y23	Z23	X24	Y24	Z24

251	1	0.10404263	-0.057571266	-0.068276949	0.66938713	0.12983505	0.062133436	-0.007406058	-0.0051438177	-0.13108201	0.53225715	0.17749255	0.08881893	-0.005997075	0.023266548	-0.049322489	0.56558862	0.20083704	0.0081199661	-0.085030949	-0.0095221184	-0.10137754	0.48576128	0.1579473	0.036712605	0.16670985	0.33582208	-0.16121499	0.51447339	0.5665192	0.08892392	0.15666283	0.32512513	-0.04074545	0.53676516	0.58036745	-0.036475664	0.19096998	0.72641404	-0.24903989	0.19410177	0.78390171	0.13483842	0.26226261	0.8307839	-0.19409919	0.26428752	0.85640102	0.050823718	0.065687048	0.88047241	-0.068497898	0.29068432	1.3399825	-0.20334391	0.22293242	1.3462164	0.072354764	0.18638913	1.355215	-0.0857704	0.26009715	1.1224293	-0.47713445	0.019009023	1.1527688	0.28068164	0.47502222	1.1841946	-0.59935963	0.054351408	1.2543998	0.51039224
252	1.004	0.10439161	-0.057394656	-0.068123154	0.68486646	0.12909919	0.059247743	-0.0060035259	-0.0020808123	-0.13167022	0.54712783	0.17582446	0.08687465	-0.0037409102	0.026307705	-0.049283134	0.58003482	0.20023925	0.0063828071	-0.083273643	-0.0054681863	-0.10085395	0.50088168	0.1565988	0.034563882	0.16619594	0.3402768	-0.16196767	0.51997135	0.56547158	0.088603111	0.15576379	0.32943064	-0.041373628	0.54256343	0.57940708	-0.036561731	0.19654065	0.72992872	-0.24809309	0.20138445	0.78960012	0.13446896	0.26909172	0.83497272	-0.19406101	0.27219904	0.86258647	0.050552752	0.073656886	0.88505534	-0.067900168	0.29620201	1.3455178	-0.20264497	0.22815561	1.3509908	0.072341858	0.19248752	1.3599878	-0.085260096	0.26678498	1.1294231	-0.47781008	0.02203471	1.158887	0.27937985	0.48152398	1.1934938	-0.59918607	0.05622129	1.261686	0.50883005
253	1.008	0.1048441	-0.057199613	-0.067956234	0.69992505	0.12844198	0.05657908	-0.004459731	0.0012015187	-0.13208431	0.56158264	0.17425798	0.084921545	-0.0010574836	0.029545879	-0.049135744	0.59404713	0.19975628	0.0046023569	-0.081255034	-0.0010868688	-0.1001935	0.51562002	0.15542903	0.032357627	0.16601121	0.34491111	-0.16278251	0.52529913	0.5642371	0.088229358	0.15512186	0.33393781	-0.042105986	0.54832117	0.57826639	-0.03663854	0.2022298	0.73355866	-0.24718	0.20871135	0.79526549	0.1341119	0.27600804	0.83921885	-0.19393666	0.28014729	0.86878987	0.050298861	0.081576096	0.88959891	-0.067403536	0.30162454	1.3510762	-0.20196084	0.23331483	1.3557638	0.072351657	0.19855535	1.3647602	-0.084716039	0.27335905	1.136266	-0.47830357	0.025073946	1.1649269	0.27797235	0.48787173	1.2025603	-0.59893477	0.058130004	1.2686773	0.50724268
254	1.012	0.10538577	-0.056994533	-0.0678046	0.71450951	0.12791	0.054086407	-0.0028847733	0.0047141073	-0.13218067	0.57556374	0.17280143	0.08297769	0.0019831368	0.032906071	-0.048974437	0.60765012	0.19935039	0.0028195587	-0.078949901	0.0035896078	-0.099411469	0.52995384	0.15439695	0.030096072	0.16616614	0.34968469	-0.16368517	0.53045318	0.56285354	0.087821502	0.15481287	0.33859758	-0.042960494	0.55401341	0.57694325	-0.036712046	0.20815941	0.73733343	-0.24653786	0.21610633	0.80088455	0.13378839	0.28299726	0.84351242	-0.19374531	0.28813398	0.87496815	0.050058694	0.089314879	0.89407727	-0.067216656	0.30695107	1.3566023	-0.20127623	0.23837545	1.3605098	0.072397932	0.20458959	1.3695089	-0.084140271	0.27981875	1.1429294	-0.47862617	0.028108345	1.1708952	0.27643595	0.494079	1.2113924	-0.59860947	0.060098508	1.2753814	0.50563348
255	1.016	0.10601117	-0.056790293	-0.067688711	0.72859814	0.12753651	0.051731642	-0.0012857346	0.00841424	-0.13193023	0.58903446	0.17145809	0.081034071	0.0053313379	0.036320232	-0.048890249	0.62086449	0.19895776	0.0010733465	-0.076321522	0.0084984845	-0.098517983	0.54384426	0.15343656	0.02780518	0.16664521	0.35456501	-0.16469183	0.5354627	0.56131039	0.087421997	0.15489753	0.34334988	-0.043953253	0.55962368	0.57543454	-0.036784461	0.21433615	0.7412521	-0.24622333	0.22359006	0.80645038	0.13351872	0.29003596	0.84784755	-0.19350685	0.29616964	0.88109155	0.049826951	0.096773171	0.89850967	-0.067462422	0.31218411	1.3620573	-0.20058734	0.24332032	1.3652123	0.072486944	0.21058603	1.3742166	-0.083527559	0.28616438	1.1493933	-0.47880209	0.031143578	1.176785	0.27477294	0.50015876	1.2199696	-0.59821544	0.062199857	1.2817886	0.50399806
256	1.02	0.10674214	-0.056601805	-0.067597781	0.74218731	0.12734598	0.049475048	0.00043191194	0.012213589	-0.13141724	0.60199045	0.1702056	0.079067158	0.0089974502	0.0397551	-0.048925816	0.63365195	0.19855201	-0.00063770407	-0.073337552	0.013587619	-0.097532268	0.55724231	0.15247782	0.025536452	0.16741486	0.35952222	-0.16580058	0.54037439	0.55956912	0.087084799	0.15543811	0.34813806	-0.045073839	0.56513301	0.57373842	-0.036853156	0.22066245	0.74528111	-0.24612828	0.23118291	0.81195291	0.13331914	0.29712701	0.85222376	-0.19322933	0.30426583	0.88713361	0.04959777	0.10397554	0.90293092	-0.068060207	0.31732953	1.3674257	-0.19990487	0.2481878	1.3698586	0.072623207	0.2165388	1.3788679	-0.082864599	0.29239145	1.1556405	-0.4788665	0.034195878	1.1825867	0.27299362	0.50611686	1.228279	-0.59775665	0.064503856	1.2878798	0.50233745
257	1.024	0.10762183	-0.056449834	-0.067500526	0.7552826	0.12735677	0.047268477	0.0024442158	0.016005862	-0.1308607	0.61442777	0.16900346	0.077076113	0.013006081	0.043201581	-0.049103731	0.64593403	0.19815119	-0.0023604966	-0.069974489	0.018829268	-0.096488837	0.57012479	0.15148181	0.023326603	0.16842788	0.36452406	-0.16699703	0.54521459	0.55761947	0.086831133	0.15649934	0.35291403	-0.046282839	0.57051829	0.57185865	-0.036915146	0.22704164	0.74938717	-0.24613551	0.2389031	0.81737918	0.13319484	0.30430749	0.85664188	-0.19291305	0.31242413	0.89306573	0.049367362	0.11111074	0.90734697	-0.068763713	0.32239323	1.3726987	-0.19923851	0.25301438	1.3744338	0.072814477	0.22244669	1.3834505	-0.082133553	0.29849427	1.1616575	-0.4788531	0.037281086	1.188294	0.27110627	0.51194957	1.2363163	-0.59723796	0.066997596	1.2936436	0.50066406
258	1.028	0.10868192	-0.056351222	-0.06737975	0.76788978	0.12758147	0.045060487	0.0049097664	0.019722962	-0.13052054	0.6263455	0.16782558	0.07507974	0.017358717	0.046646524	-0.049448374	0.65764013	0.19776814	-0.004134908	-0.066210843	0.02420373	-0.095431022	0.58249569	0.15043726	0.021182926	0.16962738	0.36953707	-0.16827	0.54998453	0.55549343	0.086642612	0.15812352	0.35763472	-0.047534501	0.57577079	0.56980848	-0.03697273	0.23343174	0.75356095	-0.24618898	0.24676423	0.82271628	0.13313597	0.3116007	0.8610927	-0.19256747	0.32063307	0.89886205	0.049128201	0.11844346	0.9117259	-0.069330835	0.32737674	1.3778644	-0.19859184	0.25779981	1.3789187	0.073070329	0.22831917	1.3879687	-0.081339143	0.304471	1.1674372	-0.47878361	0.040407966	1.1938966	0.26912406	0.51764984	1.2440764	-0.59666979	0.06960061	1.2990774	0.49899468
259	1.032	0.10991261	-0.056295966	-0.067249849	0.78000678	0.12801695	0.042808359	0.0078604764	0.023363571	-0.1305264	0.63778641	0.1666667	0.073080095	0.022036656	0.050059761	-0.04996916	0.66873337	0.19738684	-0.0059571073	-0.062027984	0.02968723	-0.094401125	0.59433855	0.14933175	0.019128017	0.17096241	0.37453191	-0.16961616	0.55468102	0.55323905	0.086490737	0.16032139	0.36226509	-0.048790138	0.5809011	0.56760906	-0.037033534	0.23983639	0.75780577	-0.24627201	0.25477247	0.82795008	0.13311964	0.31898455	0.86555143	-0.19221792	0.32887934	0.9045008	0.048866663	0.12615856	0.91603269	-0.069655346	0.33228222	1.3829072	-0.19796551	0.2625396	1.383293	0.07339647	0.23418059	1.3924508	-0.08053942	0.31032611	1.1729825	-0.47866338	0.043580465	1.1993745	0.2670648	0.52321748	1.251553	-0.59606655	0.072242749	1.3041855	0.49734632
260	1.036	0.11127647	-0.056254648	-0.06714122	0.79162159	0.12863048	0.040485976	0.011231657	0.026948864	-0.13084798	0.64880905	0.16552037	0.071065824	0.027022797	0.053409234	-0.050652602	0.67920773	0.19698026	-0.0077919653	-0.057420912	0.035247743	-0.093441701	0.60561413	0.14815177	0.017206532	0.1723929	0.37948638	-0.17103382	0.55930874	0.55089797	0.086356467	0.16309581	0.36677819	-0.050018362	0.58592066	0.56528415	-0.037104097	0.24627727	0.76210868	-0.24637299	0.26292763	0.83306353	0.1331202	0.32642378	0.86998404	-0.191892	0.33715961	0.90996016	0.048569492	0.13427914	0.92025492	-0.06976337	0.33712092	1.3878092	-0.19735771	0.26725551	1.3875424	0.073787748	0.24006449	1.3969161	-0.07982131	0.31606941	1.1782975	-0.47848761	0.046803862	1.2046998	0.26494498	0.52866547	1.2587397	-0.59543787	0.074904375	1.3089787	0.49573476
261	1.04	0.11274489	-0.056219126	-0.067090037	0.80270973	0.12935612	0.038084977	0.014960915	0.030479541	-0.13139773	0.65940273	0.16436943	0.0690487	0.032315801	0.056680789	-0.051486415	0.6890794	0.19653079	-0.0095989107	-0.052408594	0.040842816	-0.092607851	0.61630724	0.14690195	0.01542977	0.17387041	0.38438734	-0.1725316	0.5638833	0.54850131	0.08623209	0.16646414	0.37114288	-0.051196148	0.5908372	0.56285945	-0.037189653	0.2527754	0.76643524	-0.24647496	0.27123128	0.83803546	0.13311713	0.33390692	0.87435753	-0.19160338	0.34547738	0.91521744	0.048226362	0.14267732	0.92440299	-0.069756042	0.3419121	1.3925499	-0.19676343	0.27199833	1.3916595	0.074226722	0.24598883	1.4013137	-0.079229579	0.32170941	1.1833813	-0.47825243	0.05008619	1.2098429	0.2627765	0.53401213	1.2656243	-0.59478791	0.077607401	1.3134619	0.49416837
262	1.044	0.11429711	-0.05620505	-0.067157032	0.81323109	0.13010453	0.035615409	0.019015145	0.033944583	-0.13211692	0.66948239	0.16320282	0.067069136	0.037908047	0.059876846	-0.052481113	0.69837808	0.19603843	-0.011347903	-0.047038999	0.046424491	-0.091970595	0.62642959	0.14561021	0.013763504	0.17534861	0.38923466	-0.17412241	0.56842518	0.54607984	0.086114803	0.17042298	0.3753225	-0.052317923	0.59566351	0.56036672	-0.037299383	0.25934786	0.77074796	-0.24656121	0.27969405	0.84284425	0.1330938	0.34144248	0.87864677	-0.19135086	0.35383231	0.92025232	0.047825983	0.15116331	0.92849656	-0.069741908	0.34667602	1.3971081	-0.19617569	0.27681874	1.395636	0.074695389	0.25194197	1.4055239	-0.07872552	0.32724612	1.1882331	-0.47795533	0.053438246	1.214777	0.26056241	0.53926674	1.272184	-0.59412599	0.080383238	1.3176278	0.49264478
